<svg width="1600" height="640" viewBox="0 0 1600 640" fill="none" xmlns="http://www.w3.org/2000/svg" role="img" aria-labelledby="title desc">
  <title id="title">ReMu reverse logo</title>
  <desc id="desc">A dark luxury version of the ReMu logo for packaging and premium backgrounds.</desc>
  <rect width="1600" height="640" fill="#1F2421"/>
  <g transform="translate(162 140)">
    <circle cx="180" cy="180" r="154" stroke="#CDB990" stroke-width="2.5"/>
    <path d="M180 59C247 59 301 113 301 180C301 247 247 301 180 301C113 301 59 247 59 180C59 121 101 72 157 61" stroke="#F8F5EF" stroke-width="13" stroke-linecap="round"/>
    <path d="M176 90C222 91 260 129 260 176C260 224 221 263 173 263C125 263 86 224 86 176C86 139 110 107 143 95" stroke="#F8F5EF" stroke-width="7.5" stroke-linecap="round"/>
    <path d="M181 109C162 137 153 160 153 179C153 209 174 232 205 232C230 232 249 213 249 188C249 161 231 142 204 142H170" stroke="#CDB990" stroke-width="8" stroke-linecap="round" stroke-linejoin="round"/>
    <path d="M180 59C180 59 194 88 220 102" stroke="#CDB990" stroke-width="7" stroke-linecap="round"/>
    <circle cx="180" cy="180" r="7" fill="#CDB990"/>
  </g>
  <g transform="translate(474 191)">
    <text x="0" y="146" fill="#F8F5EF" font-family="Cormorant Garamond, Didot, Bodoni 72, Georgia, serif" font-size="178" font-weight="400" letter-spacing="5">ReMu</text>
    <line x1="5" y1="192" x2="458" y2="192" stroke="#CDB990" stroke-width="1.8"/>
    <text x="0" y="252" fill="#D9D2C4" font-family="Avenir Next, Optima, Helvetica Neue, Arial, sans-serif" font-size="28" font-weight="400" letter-spacing="8">RESET MIND &amp; BODY</text>
  </g>
</svg>
